<?xml version="1.0" standalone="no"?>
<!DOCTYPE svg PUBLIC "-//W3C//DTD SVG 20010904//EN"
 "http://www.w3.org/TR/2001/REC-SVG-20010904/DTD/svg10.dtd">
<svg version="1.0" xmlns="http://www.w3.org/2000/svg"
 width="700.000000pt" height="700.000000pt" viewBox="0 0 700.000000 700.000000"
 preserveAspectRatio="xMidYMid meet">
<metadata>
Created by potrace 1.14, written by Peter Selinger 2001-2017
</metadata>
<g transform="translate(0.000000,700.000000) scale(0.100000,-0.100000)"
fill="#000000" stroke="none">
<path d="M1819 6869 c-126 -19 -189 -84 -361 -369 -187 -311 -353 -731 -413
-1045 -19 -99 -36 -196 -41 -235 -3 -25 -8 -53 -9 -62 -20 -102 -27 -572 -12
-741 11 -124 35 -296 52 -377 3 -14 8 -41 11 -60 21 -129 131 -493 202 -670
201 -499 506 -951 832 -1232 90 -77 423 -308 444 -308 3 0 22 -12 43 -26 55
-37 341 -176 453 -219 193 -75 459 -152 585 -170 22 -3 51 -7 65 -10 63 -12
91 -15 175 -22 160 -13 434 -7 519 12 11 2 35 6 51 9 241 35 519 151 784 324
295 194 510 466 623 791 32 92 67 230 74 295 3 23 9 68 13 101 9 67 7 354 -3
399 -20 86 -96 173 -180 205 -66 25 -172 22 -237 -6 -66 -29 -123 -85 -150
-146 -21 -47 -23 -68 -25 -232 -1 -99 -7 -209 -13 -244 -73 -392 -298 -659
-680 -806 -83 -32 -226 -72 -291 -81 -14 -2 -56 -8 -95 -13 -69 -10 -425 -8
-441 1 -5 3 -31 8 -59 12 -60 7 -66 8 -175 34 -357 85 -739 278 -1060 535
-481 385 -851 1161 -927 1942 -15 158 -9 535 11 655 3 14 10 59 16 100 55 372
212 765 441 1107 101 151 119 195 114 275 -11 167 -174 301 -336 277z"/>
<path d="M4375 5783 c-233 -29 -393 -68 -578 -142 -739 -296 -1194 -1011
-1124 -1766 7 -75 10 -92 32 -189 167 -716 945 -1278 1632 -1180 86 12 220 53
288 86 127 64 279 199 320 283 30 63 30 178 0 242 -86 187 -323 227 -477 81
-67 -63 -110 -88 -179 -102 -72 -14 -178 -12 -242 5 -23 6 -43 11 -44 10 -7
-3 -146 54 -198 81 -168 86 -330 237 -412 381 -87 155 -122 289 -121 472 0
162 30 295 95 434 24 52 93 170 114 194 5 7 18 23 29 36 80 97 203 205 305
268 147 92 373 177 525 198 14 2 48 7 75 11 106 15 317 7 436 -17 30 -6 65
-12 79 -15 61 -11 224 -71 320 -117 289 -138 538 -364 748 -678 185 -276 300
-588 347 -934 18 -135 13 -489 -9 -610 -25 -140 -26 -149 -32 -167 -5 -16 -10
-40 -20 -87 -20 -98 -113 -339 -186 -485 -79 -158 -210 -353 -324 -486 -44
-51 -216 -223 -258 -258 -72 -60 -208 -158 -289 -208 -80 -50 -297 -164 -312
-164 -3 0 -24 -9 -48 -19 -150 -69 -399 -136 -657 -175 -173 -27 -626 -28
-780 -2 -8 1 -49 8 -90 15 -377 64 -805 239 -1190 489 -100 65 -305 214 -320
232 -3 3 -15 13 -28 22 -37 25 -180 156 -276 253 -460 465 -778 1074 -852
1635 -3 19 -8 49 -11 65 -3 17 -7 152 -9 302 -3 307 -7 326 -81 400 -62 62
-124 87 -218 87 -85 1 -129 -15 -185 -66 -81 -74 -102 -144 -103 -351 -1 -149
7 -336 17 -397 3 -14 7 -52 11 -85 5 -48 43 -256 60 -325 110 -467 331 -930
624 -1310 172 -224 406 -470 606 -639 61 -51 124 -104 140 -118 49 -41 224
-166 331 -235 160 -104 229 -143 429 -242 380 -188 810 -318 1155 -351 36 -3
79 -8 95 -10 37 -5 407 -5 490 0 76 4 203 16 224 20 9 1 43 6 76 9 33 4 94 14
135 23 41 8 86 17 100 19 64 11 237 60 355 99 651 219 1184 643 1551 1238 59
95 191 352 242 472 61 142 139 389 167 528 50 253 60 352 60 607 0 258 -14
388 -66 630 -21 96 -80 300 -104 355 -7 17 -25 62 -40 100 -97 241 -293 560
-459 745 -83 93 -229 232 -323 308 -309 249 -696 423 -1058 477 -22 4 -51 9
-65 12 -30 6 -402 11 -445 6z"/>
<path d="M5424 4057 c-118 -30 -222 -136 -239 -243 -5 -27 -10 -56 -12 -64 -8
-36 20 -110 50 -136 30 -25 36 -26 112 -21 67 5 230 30 350 53 83 16 125 59
125 131 0 69 -51 169 -115 226 -65 58 -172 79 -271 54z"/>
</g>
</svg>
