<svg xmlns="http://www.w3.org/2000/svg" viewBox="0 0 1000 1000"><path fill="#FFF" d="M545.3 981.8h-22c-135.2-5-280-78.5-383.2-194C47 685 3 557.2 10 429.5c2.5-24.6 22-41.7 44.2-39.3 24.6 2.6 41.7 22.2 39.3 44.3-9.8 132.6 54 233.3 108 294.7 86 95.7 213.6 162 324 164.5C678 900.7 808 829.5 872 702c59-118 46.7-253-34.4-351.2-76-93.3-176.7-105.5-245.5-83.4-71 22-120 78.6-125 144.8-5 68.8 39.5 118 88.6 137.5 34.5 14.7 66.4 12.3 81-5 14.8-17 42-19.5 59-4.8 17.2 14.2 19.7 41.2 5 58.4-39.3 46.7-108 59-179.3 29.5-76-32-150-113-140-223.5 10-103 81-186.6 184-218.5 120.4-36.6 248 5 336.5 110.7 100.7 122.8 117.8 297 44.2 442-73.8 154.7-221 243-400.3 243z"/><path fill="#FFF" d="M579.6 812.4c-90.8 0-189-36.8-275-103-127.6-101-260.2-410-73.6-673 14.7-19.6 39.3-24.5 59-10 19.6 15 24.5 39.5 9.7 59-154.7 213.8-44.2 476.5 56.5 555 130 103 255.4 98.3 324 61.4C737 672.4 764 618.4 759 549.6c-2.6-24.5 14.6-44.2 39.2-46.6 24.5-2.4 44.2 14.8 46.6 39.3C852.2 645.5 808 729 719.6 775.6c-41.7 24.6-88.4 36.8-140 36.8z"/><path fill="#FFF" d="M830 456.4c2.5 24.6-17 22-41.7 27-24.5 2.5-44.2 12.3-49-12.3-2.5-24 14.7-49 39.2-51 24.6-7.4 46.7 12.3 51.6 36.8z"/></svg>